<svg width="24" height="24" viewBox="0 0 24 24" fill="none" xmlns="http://www.w3.org/2000/svg">
<g clip-path="url(#clip0_156_1586)">
<path d="M11.9998 24.0001C18.6271 24.0001 23.9996 18.6276 23.9996 12.0003C23.9996 5.37298 18.6271 0.000488281 11.9998 0.000488281C5.37249 0.000488281 0 5.37298 0 12.0003C0 18.6276 5.37249 24.0001 11.9998 24.0001Z" fill="#CB2027"/>
<path d="M12.9684 16.0693C12.0612 15.9992 11.68 15.5493 10.9685 15.1174C10.5775 17.169 10.0997 19.1357 8.68423 20.1631C8.24679 17.0623 9.32552 14.7333 9.8265 12.2611C8.97258 10.8237 9.92917 7.93037 11.7303 8.64332C13.947 9.51991 9.8111 13.9882 12.5876 14.5463C15.4863 15.129 16.6696 9.51671 14.8719 7.69122C12.2747 5.05566 7.3118 7.63132 7.92208 11.4042C8.07074 12.3266 9.02392 12.6066 8.30283 13.8793C6.64056 13.5112 6.14472 12.2002 6.20846 10.4523C6.31135 7.59132 8.77921 5.58808 11.2545 5.31085C14.3851 4.96047 17.3233 6.46039 17.7289 9.40504C18.1851 12.7285 16.3156 16.3277 12.9684 16.0693Z" fill="#F1F2F2"/>
</g>
<defs>
<clipPath id="clip0_156_1586">
<rect width="24" height="24" fill="white"/>
</clipPath>
</defs>
</svg>
