<svg width="24" height="24" viewBox="0 0 24 24" fill="none" xmlns="http://www.w3.org/2000/svg">
<path d="M8.5361 12.4407C6.63288 12.4407 5.0953 13.9782 5.12343 15.8626C5.14218 17.072 5.80784 18.122 6.78757 18.7079C6.45474 18.197 6.25786 17.5923 6.24848 16.9407C6.22036 15.0563 7.75794 13.5188 9.66116 13.5188C10.0362 13.5188 10.3971 13.5798 10.7346 13.6876V9.91416C10.3831 9.8626 10.0221 9.83447 9.66116 9.83447C9.64241 9.83447 9.62834 9.83447 9.60959 9.83447V12.6095C9.27207 12.5017 8.91112 12.4407 8.5361 12.4407Z" fill="#F00044"/>
<path d="M16.7619 1.125H16.7338H15.7588C16.04 2.53594 16.8322 3.76406 17.9385 4.59844C17.2119 3.6375 16.7713 2.4375 16.7619 1.125Z" fill="#F00044"/>
<path d="M22.5005 6.86729C22.1302 6.86729 21.7739 6.82979 21.4223 6.76416V9.46885C20.1473 9.46885 18.9097 9.22041 17.7472 8.72354C16.9971 8.40479 16.2987 7.99697 15.6564 7.50479L15.6752 15.8439C15.6658 17.7189 14.9251 19.4767 13.5845 20.8032C12.4922 21.8814 11.1093 22.5704 9.60926 22.7907C9.25768 22.8423 8.89672 22.8704 8.53577 22.8704C6.93256 22.8704 5.40436 22.3501 4.16211 21.3892C4.30274 21.5579 4.45275 21.722 4.61682 21.8814C5.96689 23.2126 7.7576 23.9485 9.66551 23.9485C10.0265 23.9485 10.3874 23.9204 10.739 23.8689C12.2391 23.6486 13.622 22.9595 14.7142 21.8814C16.0549 20.5548 16.7956 18.797 16.8049 16.922L16.7346 8.58291C17.3721 9.0751 18.0706 9.4876 18.8253 9.80166C19.9926 10.2939 21.2302 10.547 22.5005 10.547" fill="#F00044"/>
<path d="M4.60292 11.911C5.93892 10.5845 7.71558 9.84854 9.60942 9.83447V8.83604C9.25784 8.78447 8.89688 8.75635 8.53593 8.75635C6.62333 8.75635 4.82793 9.49229 3.47786 10.8329C2.15123 12.1501 1.39182 13.9501 1.39651 15.8204C1.39651 17.7048 2.14186 19.472 3.48724 20.8079C3.70287 21.0189 3.9232 21.2157 4.15758 21.3939C3.09815 20.1329 2.52156 18.5579 2.51688 16.8985C2.52156 15.0282 3.27629 13.2282 4.60292 11.911Z" fill="#08FFF9"/>
<path d="M21.4217 6.76401V5.76089H21.4123C20.1091 5.76089 18.909 5.32964 17.9434 4.59839C18.7825 5.70464 20.0107 6.49214 21.4217 6.76401Z" fill="#08FFF9"/>
<path d="M9.4685 20.2594C9.91383 20.2828 10.3404 20.2219 10.7342 20.0953C12.0936 19.65 13.0734 18.3844 13.0734 16.8937L13.0781 11.3156V1.125H15.7594C15.6891 0.773438 15.6516 0.417188 15.6469 0.046875H11.953V10.2328L11.9483 15.8109C11.9483 17.3016 10.9686 18.5672 9.60913 19.0125C9.21536 19.1438 8.78877 19.2047 8.34344 19.1766C7.77622 19.1438 7.24651 18.975 6.78711 18.7031C7.3637 19.5938 8.34813 20.1984 9.4685 20.2594Z" fill="#08FFF9"/>
<path d="M9.60937 22.7906C11.1094 22.5703 12.4923 21.8812 13.5846 20.8031C14.9253 19.4766 15.6659 17.7188 15.6753 15.8438L15.6566 7.50469C16.2941 7.99688 16.9926 8.40938 17.7473 8.72344C18.9145 9.21563 20.1521 9.46875 21.4225 9.46875V6.76406C20.0115 6.49219 18.7833 5.70469 17.9442 4.59844C16.8379 3.76406 16.0409 2.53594 15.7644 1.125H13.0783V11.3109L13.0736 16.8891C13.0736 18.3797 12.0939 19.6453 10.7344 20.0906C10.3407 20.2219 9.91407 20.2828 9.46874 20.2547C8.34368 20.1938 7.36394 19.5891 6.78735 18.7031C5.80761 18.1219 5.14195 17.0672 5.1232 15.8578C5.09507 13.9734 6.63265 12.4359 8.53588 12.4359C8.91089 12.4359 9.27185 12.4969 9.60937 12.6047V9.82969C7.71552 9.84375 5.93887 10.5797 4.60286 11.9062C3.27623 13.2234 2.51682 15.0234 2.52151 16.8891C2.52151 18.5484 3.0981 20.1234 4.16221 21.3844C5.40915 22.3453 6.93267 22.8656 8.53588 22.8656C8.89683 22.8703 9.25779 22.8422 9.60937 22.7906Z" fill="black"/>
</svg>
