<svg width="24" height="24" viewBox="0 0 24 24" fill="none" xmlns="http://www.w3.org/2000/svg">
<path d="M23.7885 4.76807L16.5098 11.9999L23.7885 19.2317C23.92 18.9567 23.9999 18.6527 23.9999 18.328V5.67177C23.9999 5.34707 23.92 5.04308 23.7885 4.76807Z" fill="white"/>
<path d="M21.8905 3.5625H2.10927C1.78457 3.5625 1.48058 3.64233 1.20557 3.77391L10.5085 13.03C11.3311 13.8526 12.6687 13.8526 13.4913 13.03L22.7942 3.77391C22.5192 3.64233 22.2152 3.5625 21.8905 3.5625Z" fill="white"/>
<path d="M0.211406 4.76807C0.0798281 5.04308 0 5.34707 0 5.67177V18.328C0 18.6527 0.0798281 18.9567 0.211406 19.2317L7.49011 11.9999L0.211406 4.76807Z" fill="white"/>
<path d="M15.5155 12.9941L14.4855 14.0241C13.115 15.3947 10.8848 15.3947 9.5142 14.0241L8.48427 12.9941L1.20557 20.226C1.48058 20.3575 1.78457 20.4374 2.10927 20.4374H21.8905C22.2152 20.4374 22.5192 20.3575 22.7942 20.226L15.5155 12.9941Z" fill="white"/>
</svg>
