<svg width="25" height="24" viewBox="0 0 25 24" fill="none" xmlns="http://www.w3.org/2000/svg">
<g clip-path="url(#clip0_1_9468)">
<path d="M21.0049 0H3.00488C1.35038 0 0.00488281 1.3455 0.00488281 3V21C0.00488281 22.6545 1.35038 24 3.00488 24H21.0049C22.6594 24 24.0049 22.6545 24.0049 21V3C24.0049 1.3455 22.6594 0 21.0049 0Z" fill="#1976D2"/>
<path d="M20.2555 12H16.5053V9C16.5053 8.172 17.1773 8.25 18.0053 8.25H19.5054V4.5H16.5053C14.0196 4.5 12.005 6.5145 12.005 9V12H9.00488V15.75H12.005V24H16.5053V15.75H18.7554L20.2555 12Z" fill="#FAFAFA"/>
</g>
<defs>
<clipPath id="clip0_1_9468">
<rect width="24" height="24" fill="white" transform="translate(0.00488281)"/>
</clipPath>
</defs>
</svg>
