<svg width="64" height="64" viewBox="0 0 64 64" fill="none" xmlns="http://www.w3.org/2000/svg">
<g clip-path="url(#clip0_1_878)">
<path d="M63.6397 20.8399L53.6398 6.83999C53.2398 6.32 52.6398 6 51.9998 6H12.0002C11.3602 6 10.7602 6.32 10.3602 6.83999L0.360327 20.8399C0.240328 21.1998 0.120329 21.5598 0.000330133 21.9198C-0.0396695 26.3598 3.56029 29.9998 8.00025 29.9998C10.4002 29.9998 12.5202 28.9598 14.0002 27.2798C15.4802 28.9598 17.6002 29.9998 20.0001 29.9998C22.4001 29.9998 24.5201 28.9598 26.0001 27.2798C27.4801 28.9598 29.6 29.9998 32 29.9998C34.4 29.9998 36.52 28.9598 38 27.2798C39.4799 28.9598 41.5999 29.9998 43.9999 29.9998C46.3999 29.9998 48.5198 28.9598 49.9998 27.2798C51.4798 28.9598 53.5998 29.9998 55.9998 29.9998C60.4397 29.9998 64.0397 26.3598 63.9997 21.9198C63.8797 21.5598 63.7597 21.1998 63.6397 20.8399Z" fill="#2E23FB"/>
<path d="M56 33.9998C53.876 33.9998 51.808 33.4318 50 32.3838C46.3841 34.4758 41.6161 34.4758 38.0001 32.3838C34.3842 34.4758 29.6122 34.4758 26.0003 32.3838C22.3883 34.4758 17.6124 34.4758 14.0004 32.3838C10.9964 34.1278 7.27646 34.3518 4.00049 33.2198V53.9996C4.00049 56.2076 5.79247 57.9995 8.00045 57.9995H40.0001V37.9997H52V57.9995H56C58.2079 57.9995 59.9999 56.2076 59.9999 53.9996V33.2678C58.7279 33.7198 57.3879 33.9998 56 33.9998ZM28.0002 49.9996H12.0004V37.9997H28.0002V49.9996Z" fill="#D7D5FB"/>
</g>
<defs>
<clipPath id="clip0_1_878">
<rect width="64" height="64" fill="white"/>
</clipPath>
</defs>
</svg>
