<svg width="64" height="64" viewBox="0 0 64 64" fill="none" xmlns="http://www.w3.org/2000/svg">
<path d="M48.8708 41.6093C51.3247 41.6093 53.321 39.6129 53.321 37.1591V29.4761H44.4207V37.1592C44.4205 39.6129 46.4169 41.6093 48.8708 41.6093Z" fill="#2E23FB"/>
<path d="M33.7417 59.3164H64.0001V64H33.7417V59.3164Z" fill="#2E23FB"/>
<path d="M0 55.0996H29.9916V64H0V55.0996Z" fill="#D7D5FB"/>
<path d="M64.0001 55.5662V29.4761H57.0711V37.1592C57.0711 41.6808 53.3925 45.3595 48.8708 45.3595C44.3492 45.3595 40.6706 41.6808 40.6706 37.1592V29.4761H33.7415V55.5663H64.0001V55.5662Z" fill="#D7D5FB"/>
<path d="M8.9725 16.8673H0V51.3496H29.9916V25.7262H38.5629V16.8673H29.5898V10.3086C29.5898 4.62438 24.9654 0 19.2811 0C13.5969 0 8.9725 4.62438 8.9725 10.3086V16.8673ZM12.7225 10.3086C12.7225 6.69213 15.6646 3.75 19.2811 3.75C22.8975 3.75 25.8398 6.69213 25.8398 10.3086V16.8673H12.7225V10.3086Z" fill="#2E23FB"/>
</svg>
