<svg width="64" height="64" viewBox="0 0 64 64" fill="none" xmlns="http://www.w3.org/2000/svg">
<g clip-path="url(#clip0_1_866)">
<path d="M17.5727 23.7225C13.6288 23.1864 9.02822 24.8915 5.85244 28.0678L0.549217 33.371C-0.0503923 33.9706 -0.173439 34.8988 0.251366 35.6342C0.665916 36.3598 1.53408 36.7294 2.36025 36.5082C5.72549 35.6058 10.1796 35.3056 11.2748 36.142L17.5727 23.7225Z" fill="#2E23FB"/>
<path d="M40.1632 46.4541L27.7257 52.4541C28.4186 53.3979 28.3639 56.3833 27.5563 61.8501C27.4356 62.6587 27.8536 63.4414 28.5675 63.7983C29.2897 64.1636 30.1637 64.0225 30.7359 63.4502L36.0392 58.147C39.0353 55.1509 40.6549 50.561 40.1632 46.4541Z" fill="#2E23FB"/>
<path d="M29.5952 53.0942C25.2202 55.4541 24.6636 55.5869 24.0005 56.0376C23.2578 56.5146 22.3032 56.4087 21.667 55.7725L8.40867 42.5142C7.79881 41.9043 7.66648 40.9229 8.14353 40.1807C8.59422 39.5176 8.64744 39.0933 11.0337 34.5327L16.2842 34.4795L29.5425 47.7378L29.5952 53.0942Z" fill="#919191"/>
<path d="M29.5952 53.0942C25.2202 55.4541 24.6636 55.5869 24.0005 56.0376C23.2578 56.5146 22.3032 56.4087 21.667 55.7725L15.0376 49.1431L22.9927 41.1885L29.542 47.7378L29.5952 53.0942Z" fill="#919191"/>
<path d="M29.5952 53.0936L11.0337 34.5321C20.2348 17.164 31.2924 6.31835 44.1264 2.07617L53.142 11.0385L61.9452 19.8422C57.703 32.623 46.8842 43.7596 29.5952 53.0936Z" fill="#D7D5FB"/>
<path d="M29.5952 53.0943L20.3408 43.8399L53.1421 11.0391L61.9453 19.8423C57.7031 32.6235 46.8843 43.7603 29.5952 53.0943Z" fill="#D7D5FB"/>
<path d="M47.3616 16.8203L47.282 16.7407C43.6228 13.0815 37.6829 13.081 34.0237 16.7407C30.3645 20.3998 30.3645 26.3398 34.0237 29.9985L34.1033 30.0781C37.7625 33.6313 43.6492 33.6313 47.282 29.9985C50.9148 26.3661 50.9148 20.4789 47.3616 16.8203Z" fill="#2E23FB"/>
<path d="M61.9453 19.8423C57.8887 19.5508 53.54 17.6417 50.0132 14.168L49.9336 14.0884C46.3804 10.5352 44.3916 6.15973 44.1265 2.07624C45.3462 1.65192 46.5923 1.3072 47.8389 1.01569C52.373 -0.0184865 57.1196 -0.257256 62.0518 0.273506C62.5288 0.32624 62.9795 0.56501 63.2446 0.936103C63.5098 1.20124 63.6958 1.54597 63.7222 1.94392C64.2793 6.84919 63.9873 11.5958 62.9531 16.1299C62.6616 17.3765 62.3433 18.5963 61.9453 19.8423Z" fill="#2E23FB"/>
<path d="M61.9453 19.8418C57.8887 19.5503 53.54 17.6411 50.0132 14.1675L63.2446 0.935547C63.5098 1.20068 63.6953 1.54541 63.7222 1.94336C64.2788 6.84912 63.9873 11.5952 62.9531 16.1294C62.6616 17.376 62.3433 18.5957 61.9453 19.8418Z" fill="#2E23FB"/>
<path d="M29.2769 36.6014C29.2505 36.1503 29.0649 35.7528 28.7466 35.4345C28.4282 35.0101 27.9248 34.7186 27.3945 34.7186C20.5 34.6654 18.9619 37.1049 18.5645 37.5028C7.08301 48.9843 6.9502 54.6327 6.9502 55.2157C6.97656 55.7196 7.16211 56.1708 7.50684 56.515C7.5332 56.5414 7.56006 56.5683 7.61328 56.5683C7.87842 56.8334 8.24951 56.9926 8.64697 57.0189C9.60156 57.1249 14.9844 56.9926 26.519 45.4579C29.1182 42.8593 29.3037 40.4462 29.2769 36.6014Z" fill="#2E23FB"/>
<path d="M29.2769 36.6006C29.3037 40.4453 29.1182 42.8584 26.519 45.457C14.9844 56.9917 9.60156 57.124 8.64746 57.0181C8.24951 56.9917 7.87842 56.8325 7.61328 56.5674L28.7471 35.4336C29.0649 35.752 29.2505 36.1494 29.2769 36.6006Z" fill="#2E23FB"/>
</g>
<defs>
<clipPath id="clip0_1_866">
<rect width="64" height="64" fill="white"/>
</clipPath>
</defs>
</svg>
