<svg width="64" height="64" viewBox="0 0 64 64" fill="none" xmlns="http://www.w3.org/2000/svg">
<path d="M26.375 35.75C26.375 38.8516 28.8984 41.375 32 41.375C35.1016 41.375 37.625 38.8516 37.625 35.75C37.625 32.6484 35.1016 30.125 32 30.125C28.8984 30.125 26.375 32.6484 26.375 35.75Z" fill="#D7D5FB"/>
<path d="M32 45.125C25.7964 45.125 20.75 50.1714 20.75 56.375V64H43.25V56.375C43.25 50.1714 38.2036 45.125 32 45.125Z" fill="#2E23FB"/>
<path d="M17 39.5C17 36.3984 14.4766 33.875 11.375 33.875C8.27344 33.875 5.75 36.3984 5.75 39.5C5.75 42.6016 8.27344 45.125 11.375 45.125C14.4766 45.125 17 42.6016 17 39.5Z" fill="#D7D5FB"/>
<path d="M58.25 39.5C58.25 36.3984 55.7266 33.875 52.625 33.875C49.5234 33.875 47 36.3984 47 39.5C47 42.6016 49.5234 45.125 52.625 45.125C55.7266 45.125 58.25 42.6016 58.25 39.5Z" fill="#D7D5FB"/>
<path d="M9.5 0L6.64746 6.7251L0 7.6626L4.79443 12.2168L3.69189 18.875L9.5 15.8394L15.3081 18.875L14.2056 12.2168L18.875 7.6626L12.4224 6.7251L9.5 0Z" fill="#2E23FB"/>
<path d="M34.9224 6.7251L32 0L29.1475 6.7251L22.625 7.6626L27.2944 12.2168L26.1919 18.875L32 15.8394L37.8081 18.875L36.7056 12.2168L41.375 7.6626L34.9224 6.7251Z" fill="#2E23FB"/>
<path d="M54.5 0L51.6475 6.7251L45.125 7.6626L49.7944 12.2168L48.6919 18.875L54.5 15.8394L60.3081 18.875L59.2056 12.2168L64 7.6626L57.4224 6.7251L54.5 0Z" fill="#2E23FB"/>
<path d="M52.625 48.875C50.1328 48.875 47.8521 49.7114 45.9878 51.0825C46.6152 52.7344 47 54.5059 47 56.375V64H64V60.125C64 53.9116 58.8384 48.875 52.625 48.875Z" fill="#2E23FB"/>
<path d="M0 60.125V64H17V56.375C17 54.5059 17.3848 52.7344 18.0122 51.0825C16.1479 49.7114 13.8672 48.875 11.375 48.875C5.16162 48.875 0 53.9116 0 60.125Z" fill="#2E23FB"/>
</svg>
