<svg width="165" height="40" viewBox="0 0 165 40" fill="none" xmlns="http://www.w3.org/2000/svg">
<path d="M18.477 0.0658512C15.7834 0.303083 13.1893 1.05432 10.834 2.28002C9.74595 2.84015 9.09577 3.24872 8.02761 4.03949C6.97936 4.81709 5.1416 6.59633 4.33883 7.61116C2.8726 9.46289 1.76464 11.5057 1.02821 13.7397C0.550524 15.1696 0.351489 16.0724 0.0927428 17.9769L0.0595703 18.2537L7.24474 18.2405L14.4233 18.2207L14.5029 17.7594C15.0867 14.3327 17.1899 11.1828 20.2019 9.20588C21.2966 8.4876 22.8491 7.81544 24.1826 7.48595C25.4963 7.15646 25.4963 7.15646 30.6513 7.11692L35.5276 7.08397L34.4661 6.02302C32.7743 4.32944 31.1754 3.16964 29.1253 2.14822C27.0156 1.10045 24.9522 0.474419 22.5904 0.164698C21.635 0.0394917 19.3992 -0.0132256 18.477 0.0658512Z" fill="white"/>
<path d="M69.1978 20.2305V31.4331H70.8564H72.515V20.2305V9.02785H70.8564H69.1978V20.2305Z" fill="white"/>
<path d="M129.99 9.14645C129.101 9.46276 128.563 10.3063 128.663 11.2354C128.736 11.9471 129.154 12.5336 129.804 12.8499C130.089 12.9883 130.228 13.0146 130.799 13.0146C131.389 13.0146 131.502 12.9949 131.841 12.8301C132.617 12.4479 132.995 11.7824 132.942 10.8796C132.895 10.1086 132.537 9.58138 131.827 9.21894C131.409 9.00807 130.48 8.97512 129.99 9.14645Z" fill="white"/>
<path d="M50.7539 20.5204V31.4331H52.4125H54.0712V27.0575V22.6819L57.0103 22.6489C59.3456 22.6226 60.0555 22.5962 60.5066 22.5105C63.1273 22.0097 64.8456 20.6984 65.6086 18.6028C65.9204 17.7725 66.0199 17.1399 66.0199 16.1448C66.0067 12.6984 64.0561 10.471 60.4403 9.77909C59.9626 9.68683 59.1996 9.66047 55.3185 9.6407L50.7539 9.61434V20.5204ZM59.8432 12.4809C61.7075 12.8961 62.6297 14.1152 62.6297 16.1712C62.6297 18.1415 61.7539 19.3211 59.956 19.7758C59.4584 19.9076 59.1864 19.9208 56.7449 19.9471L54.0712 19.9801V16.1448V12.3096L56.7117 12.3425C58.8546 12.3689 59.4385 12.3952 59.8432 12.4809Z" fill="white"/>
<path d="M26.1798 10.682C24.7136 10.8467 23.2673 11.3871 21.9603 12.2503C21.1907 12.7578 19.9699 13.9703 19.4524 14.7479C18.7558 15.7957 18.2649 16.9423 17.9995 18.1877C17.827 18.9785 17.827 21.0214 17.9995 21.8121C18.4108 23.7363 19.2468 25.2586 20.6268 26.6227C22.0001 27.9802 23.4995 28.7841 25.397 29.1993C25.9476 29.3179 26.3324 29.3443 28.1171 29.3706L30.1871 29.4036V20.0065V10.6095L28.4157 10.6161C27.4337 10.6227 26.4319 10.649 26.1798 10.682Z" fill="white"/>
<path d="M33.7695 19.9999V29.3904L35.8461 29.3772L37.9161 29.3574L38.1616 28.8632C40.55 24.1054 40.895 18.4777 39.1169 13.4101C38.8383 12.5996 38.4933 11.789 38.1682 11.1367L37.9161 10.6424L35.8461 10.6227L33.7695 10.6095V19.9999Z" fill="white"/>
<path d="M138.794 12.1778C138.794 12.3227 138.482 15.3343 138.429 15.7297L138.389 16.013H137.062H135.742V17.3969V18.7807H137.069H138.396V22.8137C138.396 27.7297 138.442 28.2107 138.973 29.3112C139.411 30.2338 140.326 30.8993 141.613 31.2486C142.084 31.3738 142.363 31.3936 144.055 31.4199L145.959 31.4463V30.0624V28.6852L144.652 28.6456C143.152 28.6061 142.741 28.5204 142.316 28.158C142.144 28.0196 141.998 27.8021 141.899 27.5583L141.746 27.1827L141.726 22.985L141.706 18.7807L143.915 18.7675L146.125 18.7478L146.145 17.3837L146.158 16.013L143.955 15.9998L141.746 15.9801L141.726 14.0163L141.713 12.0591H140.253C138.893 12.0591 138.794 12.0657 138.794 12.1778Z" fill="white"/>
<path d="M100.426 15.6835C98.9135 15.9208 97.7524 16.4809 96.8302 17.4298C95.7355 18.5501 95.2048 20.1646 95.3972 21.8186C95.5365 23.0443 95.9478 23.9669 96.7241 24.7906L97.142 25.2387L96.6113 25.812C96.3194 26.1349 95.7156 26.7478 95.2777 27.1827L94.475 27.9735V28.3689L94.4816 28.7643L94.9261 29.1135C95.1716 29.3046 95.6095 29.5814 95.9014 29.733L96.4322 30.0031L95.7621 30.6687C94.7337 31.6901 94.3423 32.5666 94.3423 33.8186C94.3423 35.9142 95.5365 37.3639 97.905 38.1547C99.6764 38.7412 102.443 38.84 104.294 38.3788C105.103 38.1811 106.245 37.6209 106.835 37.1333C107.956 36.2107 108.606 34.8071 108.606 33.3112C108.606 32.0526 108.248 31.1432 107.445 30.3392C106.424 29.3178 105.07 28.8631 102.231 28.5995C100.612 28.448 99.5769 28.3096 99.0528 28.1646C98.6149 28.0394 98.0576 27.8087 98.0576 27.7494C98.0576 27.7297 98.3495 27.4199 98.7078 27.0707L99.3513 26.4315L99.7826 26.5303C100.466 26.6885 102.211 26.728 103.014 26.5962C105.329 26.2338 107.021 24.8368 107.651 22.7676C107.817 22.2338 107.83 22.0756 107.83 21.186C107.83 20.0855 107.724 19.5517 107.353 18.7742C107.246 18.5435 107.16 18.3524 107.167 18.3458C107.187 18.326 109.409 18.1877 109.661 18.1877H109.867V17.1003V16.013H107.027C104.195 16.013 104.195 16.013 103.531 15.8417C102.994 15.7033 102.675 15.6704 101.839 15.6506C101.275 15.6374 100.638 15.6506 100.426 15.6835ZM102.881 18.4381C104.301 18.8796 105.044 20.1185 104.825 21.6737C104.599 23.2947 103.286 24.2107 101.342 24.0987C100.26 24.0394 99.4309 23.6506 98.9068 22.9653C98.5552 22.504 98.3893 21.9438 98.3893 21.186C98.3893 19.5847 99.2319 18.616 100.891 18.3195C101.375 18.2272 102.41 18.2931 102.881 18.4381ZM100.479 30.9323C100.99 30.985 101.773 31.0641 102.224 31.1036C103.962 31.2618 104.778 31.6374 105.263 32.5007C105.435 32.817 105.455 32.9092 105.455 33.443C105.455 33.9372 105.429 34.0888 105.289 34.3656C105.077 34.8005 104.559 35.3013 104.049 35.5715C102.383 36.4414 99.3911 36.1844 98.1638 35.0575C97.9979 34.9059 97.779 34.6094 97.6794 34.4051C97.5202 34.0822 97.4937 33.957 97.4937 33.4364C97.4937 32.8829 97.5136 32.8104 97.7392 32.3491C97.8718 32.0855 98.1107 31.7363 98.2699 31.5847C98.6547 31.2157 99.3248 30.7741 99.4509 30.8071C99.5039 30.8203 99.9683 30.8796 100.479 30.9323Z" fill="white"/>
<path d="M117.377 15.6902C116.634 15.7824 115.891 16.0065 115.241 16.3228C114.71 16.5798 114.511 16.7314 114.007 17.2256C113.085 18.1416 112.707 19.0312 112.694 20.2964C112.687 21.621 113.112 22.4513 114.226 23.2355C115.016 23.8022 116.389 24.303 118.326 24.7446C119.587 25.0279 120.595 25.3245 121.02 25.5353C122.048 26.0559 122.247 27.4332 121.431 28.336C120.894 28.9291 120.237 29.1531 119.056 29.1531C118.24 29.1531 117.782 29.0675 117.192 28.7907C116.455 28.448 115.626 27.5123 115.434 26.8072L115.367 26.5567H113.715H112.057V26.7413C112.057 27.3146 112.541 28.5403 113.019 29.1927C113.304 29.5749 114.054 30.2932 114.465 30.5699C116.807 32.1515 120.94 32.2503 123.169 30.7676C123.833 30.3261 124.516 29.5815 124.815 28.9818C125.146 28.3162 125.259 27.789 125.259 26.8862C125.259 25.5419 124.981 24.8236 124.204 24.1053C123.388 23.3541 122.333 22.9258 119.819 22.3129C119.142 22.1482 118.28 21.9109 117.895 21.7792C116.767 21.3838 116.389 21.1597 116.124 20.705C115.978 20.4612 115.958 20.3623 115.984 19.967C116.011 19.42 116.223 19.0642 116.727 18.7347C117.583 18.1614 119.209 18.1086 120.257 18.6161C120.867 18.9126 121.371 19.532 121.511 20.1449L121.557 20.3623H123.143H124.728V20.2108C124.728 19.967 124.483 19.1103 124.297 18.6885C123.587 17.0938 122.028 16.0263 119.952 15.7165C119.275 15.6111 118.061 15.5979 117.377 15.6902Z" fill="white"/>
<path d="M76.4494 21.1664C76.4693 25.6869 76.4892 26.3986 76.5887 26.8863C77.0863 29.3772 78.3203 30.8863 80.377 31.5189C81.8963 31.9868 83.807 31.8945 85.1472 31.2751C86.1158 30.8336 86.9517 30.1153 87.5289 29.2454L87.8209 28.7973L87.8607 29.1466C87.8806 29.3311 87.9403 29.9242 87.9801 30.4579L88.0663 31.4332H89.5458H91.0253V23.7232V16.0132H89.3733H87.7147L87.6948 20.5733L87.6683 25.14L87.4958 25.7792C87.2503 26.682 86.9119 27.2817 86.348 27.8418C85.5386 28.6523 84.6695 28.995 83.4288 28.995C81.5447 28.995 80.4234 28.1318 79.9325 26.2866C79.7932 25.7463 79.7865 25.6408 79.7666 20.8698L79.7401 16.0132H78.0815H76.4229L76.4494 21.1664Z" fill="white"/>
<path d="M129.173 23.7231V31.4331H130.832H132.491V23.7231V16.013H130.832H129.173V23.7231Z" fill="white"/>
<path d="M148.109 16.1251C148.129 16.191 149.509 19.3739 151.167 23.196L154.179 30.1482L154.617 30.168C154.856 30.1812 155.048 30.2075 155.048 30.2339C155.048 30.2668 154.226 32.0724 153.224 34.2603C152.222 36.4481 151.399 38.2471 151.399 38.2603C151.399 38.2734 152.182 38.2866 153.144 38.2866H154.889L159.878 27.196C162.625 21.1004 164.867 16.0922 164.867 16.0592C164.867 16.0329 164.084 16.0131 163.129 16.0131L161.384 16.0197L158.93 21.654C157.583 24.7512 156.461 27.3014 156.435 27.3212C156.382 27.3542 156.455 27.5321 153.761 21.0543L151.671 16.0461L149.873 16.0263C148.175 16.0131 148.076 16.0197 148.109 16.1251Z" fill="white"/>
<path d="M0.0927428 22.023C0.351489 23.9274 0.550524 24.8302 1.02821 26.2602C1.76464 28.4941 2.8726 30.537 4.33883 32.3887C5.1416 33.4035 6.97936 35.1828 8.02761 35.9603C9.09577 36.7511 9.74595 37.1597 10.834 37.7198C16.5662 40.6984 23.2936 40.7445 29.1253 37.8516C31.1754 36.8302 32.7743 35.6704 34.4661 33.9768L35.5276 32.9159L30.6513 32.8829C25.4963 32.8434 25.4963 32.8434 24.1826 32.5139C22.3714 32.0658 20.5602 31.163 19.1072 30.0032C18.5234 29.5353 17.4751 28.4678 17.0439 27.9076C15.7303 26.2009 14.8413 24.2239 14.5029 22.2404L14.4233 21.7791L7.24474 21.7594L0.0595703 21.7462L0.0927428 22.023Z" fill="white"/>
</svg>
