<svg width="25" height="24" viewBox="0 0 25 24" fill="none" xmlns="http://www.w3.org/2000/svg">
<path d="M16.8552 0H7.15461C3.21224 0 0.00488281 3.20735 0.00488281 7.14973V16.8503C0.00488281 20.7926 3.21224 24 7.15461 24H16.8552C20.7975 24 24.0049 20.7926 24.0049 16.8503V7.14973C24.0048 3.20735 20.7975 0 16.8552 0ZM21.5905 16.8503C21.5905 19.4655 19.4704 21.5856 16.8552 21.5856H7.15461C4.53938 21.5856 2.41928 19.4655 2.41928 16.8503V7.14973C2.41928 4.53446 4.53938 2.4144 7.15461 2.4144H16.8552C19.4704 2.4144 21.5905 4.53446 21.5905 7.14973V16.8503Z" fill="url(#paint0_linear_1_9474)"/>
<path d="M12.0054 5.79297C8.58256 5.79297 5.79785 8.57754 5.79785 12.0002C5.79785 15.4228 8.58256 18.2074 12.0054 18.2074C15.4283 18.2074 18.213 15.4229 18.213 12.0002C18.213 8.57749 15.4283 5.79297 12.0054 5.79297ZM12.0054 15.7931C9.91056 15.7931 8.21237 14.095 8.21237 12.0002C8.21237 9.90547 9.91061 8.20737 12.0054 8.20737C14.1003 8.20737 15.7985 9.90547 15.7985 12.0002C15.7985 14.0949 14.1002 15.7931 12.0054 15.7931Z" fill="url(#paint1_linear_1_9474)"/>
<path d="M18.2243 7.32683C19.0458 7.32683 19.7117 6.6609 19.7117 5.83944C19.7117 5.01798 19.0458 4.35205 18.2243 4.35205C17.4028 4.35205 16.7368 5.01798 16.7368 5.83944C16.7368 6.6609 17.4028 7.32683 18.2243 7.32683Z" fill="url(#paint2_linear_1_9474)"/>
<defs>
<linearGradient id="paint0_linear_1_9474" x1="12.0049" y1="23.9301" x2="12.0049" y2="0.186412" gradientUnits="userSpaceOnUse">
<stop stop-color="#E09B3D"/>
<stop offset="0.3" stop-color="#C74C4D"/>
<stop offset="0.6" stop-color="#C21975"/>
<stop offset="1" stop-color="#7024C4"/>
</linearGradient>
<linearGradient id="paint1_linear_1_9474" x1="12.0054" y1="23.9304" x2="12.0054" y2="0.186636" gradientUnits="userSpaceOnUse">
<stop stop-color="#E09B3D"/>
<stop offset="0.3" stop-color="#C74C4D"/>
<stop offset="0.6" stop-color="#C21975"/>
<stop offset="1" stop-color="#7024C4"/>
</linearGradient>
<linearGradient id="paint2_linear_1_9474" x1="18.2243" y1="23.9303" x2="18.2243" y2="0.18649" gradientUnits="userSpaceOnUse">
<stop stop-color="#E09B3D"/>
<stop offset="0.3" stop-color="#C74C4D"/>
<stop offset="0.6" stop-color="#C21975"/>
<stop offset="1" stop-color="#7024C4"/>
</linearGradient>
</defs>
</svg>
