<svg width="24" height="24" viewBox="0 0 24 24" fill="none" xmlns="http://www.w3.org/2000/svg">
<path d="M0 12.0001C0 5.37221 5.37264 0 11.9999 0C18.6274 0 24 5.37221 24 12.0001C24 18.6272 18.6274 23.9997 11.9999 23.9997C5.37264 23.9997 0 18.6272 0 12.0001Z" fill="#2E23FB"/>
<path d="M19.0809 7.31886L16.6809 4.91895C16.162 4.40002 15.3208 4.40011 14.802 4.91895L11.0952 8.62567C10.5764 9.1446 10.5763 9.98583 11.0952 10.5048L13.4951 12.9047C14.014 13.4236 14.8553 13.4235 15.3741 12.9046L19.0809 9.19786C19.5997 8.67907 19.5997 7.83774 19.0809 7.31886ZM15.1206 11.3876C14.8163 11.6918 14.3232 11.6918 14.019 11.3876L12.6122 9.9808C12.308 9.67664 12.3081 9.18349 12.6122 8.87928L15.0555 6.43598C15.3597 6.13187 15.8528 6.13182 16.157 6.43598L17.5639 7.84287C17.868 8.14698 17.868 8.64013 17.5639 8.94429L15.1206 11.3876Z" fill="white"/>
<path d="M12.9051 13.4946L10.5052 11.0947C9.9863 10.5758 9.14502 10.5759 8.62619 11.0947L4.91942 14.8015C4.40058 15.3204 4.40053 16.1616 4.91942 16.6805L7.31938 19.0804C7.83821 19.5993 8.67954 19.5992 9.19833 19.0804L12.9051 15.3736C13.4239 14.8548 13.424 14.0135 12.9051 13.4946ZM8.94472 17.5634C8.64056 17.8675 8.14745 17.8676 7.84325 17.5634L6.4364 16.1566C6.13219 15.8524 6.13224 15.3593 6.4364 15.0551L8.87975 12.6117C9.18387 12.3076 9.67702 12.3076 9.98123 12.6117L11.3881 14.0186C11.6922 14.3228 11.6922 14.8159 11.3881 15.1201L8.94472 17.5634Z" fill="white"/>
<path opacity="0.8" d="M14.8455 9.27155L14.7285 9.15444C14.354 8.7799 13.7446 8.7799 13.37 9.15444L9.1544 13.3701C8.77991 13.7446 8.77991 14.354 9.1544 14.7285L9.27146 14.8456C9.64596 15.22 10.2553 15.22 10.6299 14.8456L14.8455 10.6299C15.22 10.2554 15.22 9.646 14.8455 9.27155Z" fill="#919191"/>
<path d="M10.4194 14.635C10.1607 14.8937 9.74121 14.8937 9.48251 14.635L9.36541 14.5179C9.10671 14.2592 9.10671 13.8397 9.36541 13.5811L13.5811 9.36541C13.8398 9.10667 14.2592 9.10672 14.518 9.36551L14.635 9.48257C14.8937 9.74126 14.8938 10.1607 14.635 10.4193L10.4194 14.635Z" fill="white"/>
</svg>
