<svg width="160" height="160" viewBox="0 0 160 160" fill="none" xmlns="http://www.w3.org/2000/svg">
<g clip-path="url(#clip0_1_9184)">
<path d="M120.049 160H116.671C114.87 160 113.41 158.54 113.41 156.74V148.973H123.31V156.74C123.309 158.54 121.85 160 120.049 160Z" fill="#90BAC4"/>
<path d="M43.3294 160H39.951C38.1504 160 36.6907 158.54 36.6907 156.74V148.973H46.59V156.74C46.59 158.54 45.13 160 43.3294 160Z" fill="#90BAC4"/>
<path d="M126.349 30.011V140.525H33.6509V30.011C33.6509 28.8945 34.2253 27.8585 35.174 27.2682L78.2959 0.484473C79.3415 -0.16084 80.6581 -0.16084 81.7037 0.484473L124.826 27.2682C125.771 27.8585 126.349 28.8945 126.349 30.011Z" fill="#EAF9FA"/>
<path d="M126.349 30.0109V140.525H116.739V34.9512C116.739 33.8346 116.161 32.7987 115.216 32.2084L72.094 5.42461C71.7584 5.21805 71.3937 5.07617 71.0193 5.0018L78.2962 0.483984C79.3418 -0.161328 80.6584 -0.161328 81.704 0.483984L124.826 27.2677C125.771 27.8584 126.349 28.8943 126.349 30.0109Z" fill="#CBE5E7"/>
<path d="M126.349 96.451V112.889C123.887 114.845 121.341 116.436 118.807 117.736C113.396 120.508 108.039 121.944 103.67 122.673C101.63 122.848 100.062 124.554 100.062 126.6V140.525H59.9378V126.452C59.9378 124.467 58.4631 122.793 56.4946 122.541L56.3334 122.518C49.7793 121.315 41.2571 118.527 33.6509 112.179V95.9507C34.5221 96.3541 35.3062 96.9769 35.9131 97.7804C40.5665 103.934 47.0334 108.152 55.1296 110.317C59.2246 111.411 62.7584 111.692 64.7493 111.75C64.7493 111.75 95.7993 111.757 95.8831 111.757C97.8224 111.715 101.479 111.46 105.745 110.318C113.841 108.152 120.308 103.935 124.961 97.7807C125.358 97.2576 125.829 96.8091 126.349 96.451Z" fill="#CBE5E7"/>
<path d="M124.962 97.7801C121.747 102.031 117.662 105.352 112.777 107.717V120.323C114.747 119.626 116.772 118.778 118.808 117.736C121.341 116.435 123.887 114.844 126.349 112.889V96.4507C125.829 96.8088 125.358 97.2572 124.962 97.7801Z" fill="#A9D3D8"/>
<path d="M56.6934 25.6519L79.1505 11.7038C79.6705 11.3806 80.329 11.3806 80.849 11.7038L103.306 25.6519C104.682 26.5063 104.076 28.6291 102.456 28.6291H57.5424C55.923 28.6291 55.3174 26.5066 56.6934 25.6519Z" fill="#A8E7EF"/>
<path d="M116.739 40.6209V140.525H43.2609V40.6209C43.2609 39.7319 43.9815 39.0112 44.8706 39.0112H115.129C116.018 39.0112 116.739 39.7319 116.739 40.6209Z" fill="#FB6A3B"/>
<path d="M116.739 40.6209V140.525H43.2609V125.833C96.3349 115.865 104.031 61.9806 104.87 39.0112H115.129C116.018 39.0112 116.739 39.7319 116.739 40.6209Z" fill="#FB5532"/>
<path d="M134.284 96.7982C129.69 102.892 124.221 107.007 118.809 109.782C113.398 112.557 108.04 113.989 103.669 114.72C101.631 114.897 100.063 116.604 100.063 118.648V126.744H59.9372V118.499C59.9372 116.516 58.4629 114.839 56.4957 114.588L56.3316 114.565C47.6363 112.969 35.4769 108.587 26.5916 96.7979C24.3347 93.8073 25.4038 89.3451 29.1735 87.8417C31.5944 86.8757 34.3404 87.7482 35.9147 89.8279C40.5666 95.9832 47.031 100.2 55.131 102.364C59.2229 103.459 62.7575 103.739 64.7504 103.796C64.7504 103.796 95.8007 103.803 95.8813 103.803C97.8225 103.761 101.48 103.507 105.745 102.364C113.842 100.2 120.306 95.9832 124.962 89.8279C126.533 87.7482 129.279 86.8757 131.7 87.8417C135.469 89.3457 136.538 93.8076 134.284 96.7982Z" fill="#BCEA73"/>
<path d="M134.284 96.7983C129.69 102.892 124.221 107.007 118.809 109.782C113.398 112.554 108.04 113.989 103.669 114.723C101.631 114.897 100.063 116.603 100.063 118.648V126.744H92.8069V114.488C92.8069 112.444 94.3778 110.738 96.4156 110.561C100.784 109.83 106.965 108.397 113.198 105.622C119.437 102.847 125.728 98.733 130.321 92.6389C131.426 91.1742 131.735 89.3552 131.316 87.707C131.445 87.7458 131.573 87.7908 131.699 87.8423C135.472 89.3458 136.541 93.8077 134.284 96.7983Z" fill="#A3E440"/>
<path d="M59.9365 123.523H100.063V140.624H59.9365V123.523Z" fill="#A8E7EF"/>
<path d="M92.8077 123.523H100.062V140.623H92.8077V123.523Z" fill="#70D9E6"/>
<path d="M133.091 149.972H26.9087C25.1081 149.972 23.6484 148.513 23.6484 146.712V140.664C23.6484 138.864 25.1081 137.404 26.9087 137.404H133.091C134.891 137.404 136.351 138.864 136.351 140.664V146.712C136.351 148.513 134.891 149.972 133.091 149.972Z" fill="#EAF9FA"/>
<path d="M136.352 140.664V146.712C136.352 148.512 134.89 149.974 133.089 149.974H123.266C125.067 149.974 126.529 148.512 126.529 146.712V140.664C126.529 138.864 125.067 137.405 123.266 137.405H133.089C134.89 137.405 136.352 138.864 136.352 140.664Z" fill="#CBE5E7"/>
<path d="M80.7244 112.86C88.0296 112.86 93.9516 106.635 93.9516 98.9551C93.9516 91.2754 88.0296 85.0498 80.7244 85.0498C73.4192 85.0498 67.4972 91.2754 67.4972 98.9551C67.4972 106.635 73.4192 112.86 80.7244 112.86Z" fill="#FFCEC0"/>
<path d="M93.9525 98.9544C93.9525 106.636 88.0291 112.859 80.7244 112.859C78.5513 112.859 76.5007 112.308 74.6913 111.333C81.0525 110.325 85.93 104.553 85.93 97.5831C85.93 92.1906 83.01 87.5162 78.7413 85.2081C79.3885 85.1019 80.0516 85.0503 80.7244 85.0503C88.0291 85.0503 93.9525 91.2762 93.9525 98.9544Z" fill="#FDB0A0"/>
<path d="M130.887 87.7059H29.1134C27.3353 87.7059 25.894 86.2647 25.894 84.4865V58.6056C25.894 56.8275 27.3353 55.3862 29.1134 55.3862H130.887C132.665 55.3862 134.106 56.8275 134.106 58.6056V84.4865C134.106 86.2644 132.665 87.7059 130.887 87.7059Z" fill="#FCB44D"/>
<path d="M134.107 58.6041V84.4876C134.107 86.2648 132.665 87.7069 130.888 87.7069H121.7C123.477 87.7069 124.919 86.2648 124.919 84.4876V58.6041C124.919 56.827 123.477 55.3848 121.7 55.3848H130.888C132.665 55.3851 134.107 56.8273 134.107 58.6041Z" fill="#FCA62F"/>
<path d="M28.505 98.9553C32.8218 98.9553 36.3212 95.4558 36.3212 91.139C36.3212 86.8222 32.8218 83.3228 28.505 83.3228C24.1882 83.3228 20.6887 86.8222 20.6887 91.139C20.6887 95.4558 24.1882 98.9553 28.505 98.9553Z" fill="#FFCEC0"/>
<path d="M36.3203 91.139C36.3203 95.4562 32.821 98.9556 28.5038 98.9556C26.4594 98.9556 24.5956 98.1699 23.2047 96.8824C27.5185 96.8759 31.0116 93.3799 31.0116 89.0659C31.0116 86.7962 30.0425 84.7487 28.4972 83.3228H28.5038C32.821 83.3224 36.3203 86.8218 36.3203 91.139Z" fill="#FDB0A0"/>
<path d="M131.495 98.9553C135.812 98.9553 139.311 95.4558 139.311 91.139C139.311 86.8222 135.812 83.3228 131.495 83.3228C127.178 83.3228 123.679 86.8222 123.679 91.139C123.679 95.4558 127.178 98.9553 131.495 98.9553Z" fill="#FFCEC0"/>
<path d="M139.31 91.1385C139.31 95.4557 135.81 98.9551 131.496 98.9551C129.452 98.9551 127.588 98.1695 126.194 96.882C130.505 96.8788 134.001 93.3795 134.001 89.0654C134.001 86.7957 133.032 84.7482 131.487 83.3223H131.496C135.81 83.322 139.31 86.8213 139.31 91.1385Z" fill="#FDB0A0"/>
<path d="M47.9025 63.4219H40.8613C39.5278 63.4219 38.4469 64.5028 38.4469 65.8362C38.4469 67.17 39.5278 68.2506 40.8613 68.2506H41.9675V77.255C41.9675 78.5887 43.0485 79.6694 44.3819 79.6694C45.7153 79.6694 46.7963 78.5884 46.7963 77.255V68.2506H47.9025C49.236 68.2506 50.3169 67.1697 50.3169 65.8362C50.3169 64.5028 49.236 63.4219 47.9025 63.4219Z" fill="#FB5532"/>
<path d="M62.15 63.4219C60.8165 63.4219 59.7356 64.5028 59.7356 65.8362V69.1312H57.5231V65.8362C57.5231 64.5025 56.4422 63.4219 55.1087 63.4219C53.7753 63.4219 52.6943 64.5028 52.6943 65.8362V77.255C52.6943 78.5887 53.7753 79.6694 55.1087 79.6694C56.4422 79.6694 57.5231 78.5884 57.5231 77.255V73.9603H59.7356V77.255C59.7356 78.5887 60.8165 79.6694 62.15 79.6694C63.4834 79.6694 64.5643 78.5884 64.5643 77.255V65.8362C64.5643 64.5028 63.4834 63.4219 62.15 63.4219Z" fill="#FB5532"/>
<path d="M72.8762 63.4219C69.6037 63.4219 66.9409 66.0844 66.9409 69.3572V77.2553C66.9409 78.5891 68.0219 79.6697 69.3553 79.6697C70.6887 79.6697 71.7697 78.5887 71.7697 77.2553V74.8622H73.9822V77.2553C73.9822 78.5891 75.0631 79.6697 76.3965 79.6697C77.73 79.6697 78.8109 78.5887 78.8109 77.2553V69.3572C78.8116 66.0844 76.149 63.4219 72.8762 63.4219ZM71.77 70.0331V69.3572C71.77 68.7472 72.2662 68.2509 72.8762 68.2509C73.4862 68.2509 73.9825 68.7475 73.9825 69.3572V70.0331H71.77Z" fill="#FB5532"/>
<path d="M88.589 78.5227C89.0156 79.2049 89.7803 79.6699 90.644 79.6699C91.9775 79.6699 93.0584 78.5889 93.0584 77.2555V65.8367C93.0584 64.503 91.9775 63.4224 90.644 63.4224C89.3106 63.4224 88.2297 64.5033 88.2297 65.8367V68.7402C88.2297 68.7402 85.6494 64.5596 85.6456 64.5542C85.2184 63.8752 84.4641 63.4224 83.6025 63.4224C82.2691 63.4224 81.1881 64.5033 81.1881 65.8367V77.2555C81.1881 78.5892 82.2691 79.6699 83.6025 79.6699C84.9359 79.6699 86.0169 78.5889 86.0169 77.2555V74.3521L88.589 78.5227Z" fill="#FB5532"/>
<path d="M106.767 64.3156C105.927 63.28 104.407 63.1212 103.371 63.9609L100.265 66.4797V65.8362C100.265 64.5025 99.1837 63.4219 97.8503 63.4219C96.5169 63.4219 95.4359 64.5028 95.4359 65.8362V77.255C95.4359 78.5887 96.5169 79.6694 97.8503 79.6694C99.1837 79.6694 100.265 78.5884 100.265 77.255V76.6119L103.371 79.1306C103.818 79.4931 104.356 79.6694 104.89 79.6694C105.593 79.6694 106.29 79.3641 106.767 78.7756C107.607 77.7397 107.448 76.2194 106.412 75.3794L101.684 71.5456L106.412 67.7116C107.448 66.8719 107.607 65.3516 106.767 64.3156Z" fill="#FB5532"/>
<path d="M116.284 69.1314H114.952C114.709 69.1314 114.512 68.9339 114.512 68.6911C114.512 68.4483 114.709 68.2511 114.952 68.2511H119.138C120.472 68.2511 121.553 67.1702 121.553 65.8367C121.553 64.503 120.472 63.4224 119.138 63.4224H114.952C112.047 63.4224 109.683 65.7858 109.683 68.6914C109.683 71.597 112.047 73.9608 114.952 73.9608H116.284C116.527 73.9608 116.724 74.1583 116.724 74.4008C116.724 74.6433 116.527 74.8408 116.284 74.8408H112.098C110.764 74.8408 109.683 75.9217 109.683 77.2552C109.683 78.5889 110.764 79.6695 112.098 79.6695H116.284C119.189 79.6695 121.553 77.3061 121.553 74.4005C121.553 71.4952 119.19 69.1314 116.284 69.1314Z" fill="#FB5532"/>
</g>
<defs>
<clipPath id="clip0_1_9184">
<rect width="160" height="160" fill="white"/>
</clipPath>
</defs>
</svg>
