<svg width="24" height="24" viewBox="0 0 24 24" fill="none" xmlns="http://www.w3.org/2000/svg">
<path d="M8.53512 12.4407C6.6319 12.4407 5.09432 13.9782 5.12245 15.8626C5.1412 17.072 5.80686 18.122 6.7866 18.7079C6.45377 18.197 6.25688 17.5923 6.24751 16.9407C6.21938 15.0563 7.75696 13.5188 9.66018 13.5188C10.0352 13.5188 10.3962 13.5798 10.7337 13.6876V9.91416C10.3821 9.8626 10.0211 9.83447 9.66018 9.83447C9.64143 9.83447 9.62737 9.83447 9.60862 9.83447V12.6095C9.2711 12.5017 8.91014 12.4407 8.53512 12.4407Z" fill="#F00044"/>
<path d="M16.7614 1.125H16.7333H15.7583C16.0396 2.53594 16.8317 3.76406 17.938 4.59844C17.2114 3.6375 16.7708 2.4375 16.7614 1.125Z" fill="#F00044"/>
<path d="M22.5 6.86729C22.1297 6.86729 21.7734 6.82979 21.4219 6.76416V9.46885C20.1468 9.46885 18.9092 9.22041 17.7467 8.72354C16.9966 8.40479 16.2982 7.99697 15.6559 7.50479L15.6747 15.8439C15.6653 17.7189 14.9247 19.4767 13.584 20.8032C12.4917 21.8814 11.1088 22.5704 9.60877 22.7907C9.25719 22.8423 8.89623 22.8704 8.53528 22.8704C6.93207 22.8704 5.40387 22.3501 4.16162 21.3892C4.30225 21.5579 4.45226 21.722 4.61633 21.8814C5.9664 23.2126 7.75711 23.9485 9.66502 23.9485C10.026 23.9485 10.3869 23.9204 10.7385 23.8689C12.2386 23.6486 13.6215 22.9595 14.7137 21.8814C16.0544 20.5548 16.7951 18.797 16.8044 16.922L16.7341 8.58291C17.3717 9.0751 18.0701 9.4876 18.8249 9.80166C19.9921 10.2939 21.2297 10.547 22.5 10.547" fill="#F00044"/>
<path d="M4.60243 11.911C5.93843 10.5845 7.71509 9.84854 9.60893 9.83447V8.83604C9.25735 8.78447 8.8964 8.75635 8.53544 8.75635C6.62284 8.75635 4.82744 9.49229 3.47737 10.8329C2.15074 12.1501 1.39133 13.9501 1.39602 15.8204C1.39602 17.7048 2.14137 19.472 3.48675 20.8079C3.70238 21.0189 3.92271 21.2157 4.15709 21.3939C3.09767 20.1329 2.52107 18.5579 2.51639 16.8985C2.52107 15.0282 3.2758 13.2282 4.60243 11.911Z" fill="#08FFF9"/>
<path d="M21.4212 6.76426V5.76113H21.4118C20.1086 5.76113 18.9085 5.32988 17.9429 4.59863C18.782 5.70488 20.0102 6.49238 21.4212 6.76426Z" fill="#08FFF9"/>
<path d="M9.46801 20.2594C9.91334 20.2828 10.3399 20.2219 10.7337 20.0953C12.0931 19.65 13.0729 18.3844 13.0729 16.8937L13.0776 11.3156V1.125H15.759C15.6886 0.773438 15.6511 0.417188 15.6464 0.046875H11.9525V10.2328L11.9478 15.8109C11.9478 17.3016 10.9681 18.5672 9.60864 19.0125C9.21487 19.1438 8.78829 19.2047 8.34295 19.1766C7.77573 19.1438 7.24602 18.975 6.78662 18.7031C7.36321 19.5938 8.34764 20.1984 9.46801 20.2594Z" fill="#08FFF9"/>
<path d="M9.60888 22.7906C11.109 22.5703 12.4918 21.8812 13.5841 20.8031C14.9248 19.4766 15.6654 17.7188 15.6748 15.8438L15.6561 7.50469C16.2936 7.99688 16.9921 8.40938 17.7468 8.72344C18.914 9.21563 20.1516 9.46875 21.422 9.46875V6.76406C20.011 6.49219 18.7828 5.70469 17.9437 4.59844C16.8374 3.76406 16.0405 2.53594 15.7639 1.125H13.0778V11.3109L13.0731 16.8891C13.0731 18.3797 12.0934 19.6453 10.7339 20.0906C10.3402 20.2219 9.91358 20.2828 9.46825 20.2547C8.34319 20.1938 7.36345 19.5891 6.78686 18.7031C5.80712 18.1219 5.14146 17.0672 5.12271 15.8578C5.09459 13.9734 6.63216 12.4359 8.53539 12.4359C8.91041 12.4359 9.27136 12.4969 9.60888 12.6047V9.82969C7.71503 9.84375 5.93838 10.5797 4.60237 11.9062C3.27574 13.2234 2.51633 15.0234 2.52102 16.8891C2.52102 18.5484 3.09761 20.1234 4.16173 21.3844C5.40867 22.3453 6.93218 22.8656 8.53539 22.8656C8.89634 22.8703 9.2573 22.8422 9.60888 22.7906Z" fill="black"/>
</svg>
