<svg width="25" height="24" viewBox="0 0 25 24" fill="none" xmlns="http://www.w3.org/2000/svg">
<g clip-path="url(#clip0_1_9480)">
<path d="M24.0049 4.5585C23.1124 4.95 22.1614 5.2095 21.1699 5.3355C22.1899 4.7265 22.9684 3.7695 23.3344 2.616C22.3834 3.183 21.3334 3.5835 20.2144 3.807C19.3114 2.8455 18.0244 2.25 16.6204 2.25C13.8964 2.25 11.7034 4.461 11.7034 7.1715C11.7034 7.5615 11.7364 7.9365 11.8174 8.2935C7.72688 8.094 4.10738 6.1335 1.67588 3.147C1.25138 3.8835 1.00238 4.7265 1.00238 5.634C1.00238 7.338 1.87988 8.8485 3.18788 9.723C2.39738 9.708 1.62188 9.4785 0.964883 9.117C0.964883 9.132 0.964883 9.1515 0.964883 9.171C0.964883 11.562 2.67038 13.548 4.90688 14.0055C4.50638 14.115 4.06988 14.1675 3.61688 14.1675C3.30188 14.1675 2.98388 14.1495 2.68538 14.0835C3.32288 16.032 5.13188 17.4645 7.28288 17.511C5.60888 18.8205 3.48338 19.6095 1.18238 19.6095C0.778883 19.6095 0.391883 19.5915 0.00488281 19.542C2.18438 20.9475 4.76738 21.75 7.55288 21.75C16.6069 21.75 21.5569 14.25 21.5569 7.749C21.5569 7.5315 21.5494 7.3215 21.5389 7.113C22.5154 6.42 23.3359 5.5545 24.0049 4.5585Z" fill="#03A9F4"/>
</g>
<defs>
<clipPath id="clip0_1_9480">
<rect width="24" height="24" fill="white" transform="translate(0.00488281)"/>
</clipPath>
</defs>
</svg>
